<svg width="1170" height="50" viewBox="0 0 1170 50" fill="none" xmlns="http://www.w3.org/2000/svg">
<path d="M5.60156 17.2969V30.0703H13.4531V33H2.34375V17.2969H5.60156ZM21.9375 20.8594C23.0938 20.8594 24.0859 21.1094 24.9141 21.6094C25.7578 22.1094 26.3984 22.8047 26.8359 23.6953C27.2891 24.5703 27.5156 25.5859 27.5156 26.7422V28.0078H18.9375C19.0938 28.8047 19.4844 29.4453 20.1094 29.9297C20.7344 30.4141 21.5 30.6562 22.4062 30.6562C23.2656 30.6562 24.0469 30.4844 24.75 30.1406C25.4531 29.7969 26.0156 29.4453 26.4375 29.0859L26.4141 31.8516C26.0391 32.1797 25.4766 32.5156 24.7266 32.8594C23.9922 33.1875 23.1797 33.3516 22.2891 33.3516C21.1172 33.3516 20.0469 33.0859 19.0781 32.5547C18.125 32.0234 17.3594 31.2969 16.7812 30.375C16.2188 29.4531 15.9375 28.3984 15.9375 27.2109C15.9375 26.0547 16.1953 25 16.7109 24.0469C17.2266 23.0938 17.9375 22.3281 18.8438 21.75C19.75 21.1562 20.7812 20.8594 21.9375 20.8594ZM21.8672 23.4609C21.1328 23.4609 20.5156 23.6875 20.0156 24.1406C19.5156 24.5938 19.1719 25.2031 18.9844 25.9688H24.6562C24.5938 25.125 24.2812 24.5 23.7188 24.0938C23.1562 23.6719 22.5391 23.4609 21.8672 23.4609ZM34.0547 20.8594C34.7891 20.8594 35.4688 20.9688 36.0938 21.1875C36.7188 21.4062 37.2031 21.6562 37.5469 21.9375V24.5625C37.1719 24.3125 36.7109 24.0703 36.1641 23.8359C35.6328 23.6016 35.0781 23.4844 34.5 23.4844C33.9375 23.4844 33.4922 23.6094 33.1641 23.8594C32.8359 24.1094 32.6719 24.4062 32.6719 24.75C32.6719 25 32.7656 25.2344 32.9531 25.4531C33.1406 25.6562 33.5 25.8359 34.0312 25.9922L35.3672 26.4375C37.1641 26.9688 38.0625 28.0078 38.0625 29.5547C38.0625 30.2891 37.8516 30.9453 37.4297 31.5234C37.0234 32.0859 36.4688 32.5312 35.7656 32.8594C35.0781 33.1875 34.3125 33.3516 33.4688 33.3516C32.6719 33.3516 31.8984 33.2266 31.1484 32.9766C30.3984 32.7266 29.8281 32.4531 29.4375 32.1562V29.5547C29.7344 29.7578 30.0938 29.9531 30.5156 30.1406C30.9375 30.3281 31.375 30.4844 31.8281 30.6094C32.2812 30.7188 32.6953 30.7734 33.0703 30.7734C33.6641 30.7734 34.1172 30.6719 34.4297 30.4688C34.7578 30.25 34.9219 29.9453 34.9219 29.5547C34.9219 29.2578 34.7891 29.0234 34.5234 28.8516C34.2578 28.6797 33.8672 28.5078 33.3516 28.3359L31.8984 27.8203C30.9922 27.5234 30.3672 27.1016 30.0234 26.5547C29.6797 26.0078 29.5078 25.3594 29.5078 24.6094C29.5078 23.8594 29.6953 23.2109 30.0703 22.6641C30.4609 22.1016 31 21.6641 31.6875 21.3516C32.375 21.0234 33.1641 20.8594 34.0547 20.8594ZM44.4141 20.8594C45.1484 20.8594 45.8281 20.9688 46.4531 21.1875C47.0781 21.4062 47.5625 21.6562 47.9062 21.9375V24.5625C47.5312 24.3125 47.0703 24.0703 46.5234 23.8359C45.9922 23.6016 45.4375 23.4844 44.8594 23.4844C44.2969 23.4844 43.8516 23.6094 43.5234 23.8594C43.1953 24.1094 43.0312 24.4062 43.0312 24.75C43.0312 25 43.125 25.2344 43.3125 25.4531C43.5 25.6562 43.8594 25.8359 44.3906 25.9922L45.7266 26.4375C47.5234 26.9688 48.4219 28.0078 48.4219 29.5547C48.4219 30.2891 48.2109 30.9453 47.7891 31.5234C47.3828 32.0859 46.8281 32.5312 46.125 32.8594C45.4375 33.1875 44.6719 33.3516 43.8281 33.3516C43.0312 33.3516 42.2578 33.2266 41.5078 32.9766C40.7578 32.7266 40.1875 32.4531 39.7969 32.1562V29.5547C40.0938 29.7578 40.4531 29.9531 40.875 30.1406C41.2969 30.3281 41.7344 30.4844 42.1875 30.6094C42.6406 30.7188 43.0547 30.7734 43.4297 30.7734C44.0234 30.7734 44.4766 30.6719 44.7891 30.4688C45.1172 30.25 45.2812 29.9453 45.2812 29.5547C45.2812 29.2578 45.1484 29.0234 44.8828 28.8516C44.6172 28.6797 44.2266 28.5078 43.7109 28.3359L42.2578 27.8203C41.3516 27.5234 40.7266 27.1016 40.3828 26.5547C40.0391 26.0078 39.8672 25.3594 39.8672 24.6094C39.8672 23.8594 40.0547 23.2109 40.4297 22.6641C40.8203 22.1016 41.3594 21.6641 42.0469 21.3516C42.7344 21.0234 43.5234 20.8594 44.4141 20.8594ZM56.4609 20.8594C57.6172 20.8594 58.6719 21.1406 59.625 21.7031C60.5781 22.25 61.3438 23 61.9219 23.9531C62.5156 24.8906 62.8125 25.9453 62.8125 27.1172C62.8125 28.2891 62.5156 29.3438 61.9219 30.2812C61.3438 31.2188 60.5781 31.9688 59.625 32.5312C58.6719 33.0781 57.6172 33.3516 56.4609 33.3516C55.3203 33.3516 54.2656 33.0781 53.2969 32.5312C52.3438 31.9688 51.5781 31.2188 51 30.2812C50.4219 29.3438 50.1328 28.2891 50.1328 27.1172C50.1328 25.9453 50.4219 24.8906 51 23.9531C51.5781 23 52.3438 22.25 53.2969 21.7031C54.2656 21.1406 55.3203 20.8594 56.4609 20.8594ZM56.4609 23.7422C55.8984 23.7422 55.375 23.875 54.8906 24.1406C54.4062 24.4062 54.0156 24.7891 53.7188 25.2891C53.4375 25.7891 53.2969 26.3984 53.2969 27.1172C53.2969 27.8359 53.4375 28.4453 53.7188 28.9453C54.0156 29.4453 54.4062 29.8281 54.8906 30.0938C55.375 30.3438 55.8984 30.4688 56.4609 30.4688C57.0234 30.4688 57.5469 30.3438 58.0312 30.0938C58.5156 29.8281 58.9062 29.4453 59.2031 28.9453C59.5 28.4453 59.6484 27.8359 59.6484 27.1172C59.6484 26.3984 59.5 25.7891 59.2031 25.2891C58.9062 24.7891 58.5156 24.4062 58.0312 24.1406C57.5469 23.875 57.0234 23.7422 56.4609 23.7422ZM68.6016 21.1641V22.8516C68.9609 22.3672 69.4453 21.9141 70.0547 21.4922C70.6797 21.0703 71.3906 20.8594 72.1875 20.8594C73.3906 20.8594 74.3984 21.2656 75.2109 22.0781C76.0234 22.8906 76.4297 24.1094 76.4297 25.7344V33H73.4531L73.4297 26.1328C73.4297 25.3359 73.2344 24.7422 72.8438 24.3516C72.4688 23.9609 71.9453 23.7656 71.2734 23.7656C70.7422 23.7656 70.2422 23.9375 69.7734 24.2812C69.3203 24.625 68.9297 25.0312 68.6016 25.5V33H65.625V21.1641H68.6016Z" fill="#171100"/>
<path d="M81.2578 29.6719C81.7734 29.6719 82.2109 29.8594 82.5703 30.2344C82.9453 30.5938 83.1328 31.0312 83.1328 31.5469C83.1328 32.0625 82.9453 32.5078 82.5703 32.8828C82.2109 33.2422 81.7734 33.4219 81.2578 33.4219C80.7422 33.4219 80.2969 33.2422 79.9219 32.8828C79.5625 32.5078 79.3828 32.0625 79.3828 31.5469C79.3828 31.0312 79.5625 30.5938 79.9219 30.2344C80.2969 29.8594 80.7422 29.6719 81.2578 29.6719Z" fill="#FFB900"/>
<rect x="598" y="37" width="12" height="2" rx="1" fill="#171100"/>
<path d="M607.712 19.832V31H605.472V26.248H600.688V31H598.448V19.832H600.688V24.424H605.472V19.832H607.712ZM613.853 31.144C612.999 31.144 612.231 30.9573 611.549 30.584C610.866 30.2 610.327 29.6613 609.933 28.968C609.549 28.2747 609.357 27.4747 609.357 26.568C609.357 25.6613 609.554 24.8613 609.949 24.168C610.354 23.4747 610.903 22.9413 611.597 22.568C612.29 22.184 613.063 21.992 613.917 21.992C614.77 21.992 615.543 22.184 616.237 22.568C616.93 22.9413 617.474 23.4747 617.869 24.168C618.274 24.8613 618.477 25.6613 618.477 26.568C618.477 27.4747 618.269 28.2747 617.852 28.968C617.447 29.6613 616.893 30.2 616.189 30.584C615.495 30.9573 614.717 31.144 613.853 31.144ZM613.853 29.192C614.258 29.192 614.637 29.096 614.989 28.904C615.351 28.7013 615.639 28.4027 615.853 28.008C616.066 27.6133 616.173 27.1333 616.173 26.568C616.173 25.7253 615.949 25.08 615.501 24.632C615.063 24.1733 614.525 23.944 613.885 23.944C613.245 23.944 612.706 24.1733 612.269 24.632C611.842 25.08 611.629 25.7253 611.629 26.568C611.629 27.4107 611.837 28.0613 612.253 28.52C612.679 28.968 613.213 29.192 613.853 29.192ZM631.128 22.008C632.216 22.008 633.09 22.344 633.752 23.016C634.424 23.6773 634.76 24.6053 634.76 25.8V31H632.52V26.104C632.52 25.4107 632.344 24.8827 631.992 24.52C631.64 24.1467 631.16 23.96 630.552 23.96C629.944 23.96 629.458 24.1467 629.096 24.52C628.744 24.8827 628.568 25.4107 628.568 26.104V31H626.328V26.104C626.328 25.4107 626.152 24.8827 625.8 24.52C625.448 24.1467 624.968 23.96 624.36 23.96C623.741 23.96 623.25 24.1467 622.888 24.52C622.536 24.8827 622.36 25.4107 622.36 26.104V31H620.12V22.136H622.36V23.208C622.648 22.8347 623.016 22.5413 623.464 22.328C623.922 22.1147 624.424 22.008 624.968 22.008C625.661 22.008 626.28 22.1573 626.824 22.456C627.368 22.744 627.789 23.16 628.088 23.704C628.376 23.192 628.792 22.7813 629.336 22.472C629.89 22.1627 630.488 22.008 631.128 22.008ZM645.125 26.376C645.125 26.696 645.104 26.984 645.061 27.24H638.581C638.635 27.88 638.859 28.3813 639.253 28.744C639.648 29.1067 640.133 29.288 640.709 29.288C641.541 29.288 642.133 28.9307 642.485 28.216H644.901C644.645 29.0693 644.155 29.7733 643.429 30.328C642.704 30.872 641.813 31.144 640.757 31.144C639.904 31.144 639.136 30.9573 638.453 30.584C637.781 30.2 637.253 29.6613 636.869 28.968C636.496 28.2747 636.309 27.4747 636.309 26.568C636.309 25.6507 636.496 24.8453 636.869 24.152C637.243 23.4587 637.765 22.9253 638.437 22.552C639.109 22.1787 639.883 21.992 640.757 21.992C641.6 21.992 642.352 22.1733 643.013 22.536C643.685 22.8987 644.203 23.416 644.565 24.088C644.939 24.7493 645.125 25.512 645.125 26.376ZM642.805 25.736C642.795 25.16 642.587 24.7013 642.181 24.36C641.776 24.008 641.28 23.832 640.693 23.832C640.139 23.832 639.669 24.0027 639.285 24.344C638.912 24.6747 638.683 25.1387 638.597 25.736H642.805Z" fill="#171100"/>
<path d="M688.969 25.416C688.969 24.328 689.215 23.352 689.705 22.488C690.196 21.6133 690.863 20.9307 691.705 20.44C692.559 19.9493 693.503 19.704 694.537 19.704C695.753 19.704 696.815 19.9973 697.721 20.584C698.628 21.1707 699.289 22.0027 699.705 23.08H697.961C697.652 22.408 697.204 21.8907 696.617 21.528C696.041 21.1653 695.348 20.984 694.537 20.984C693.759 20.984 693.06 21.1653 692.441 21.528C691.823 21.8907 691.337 22.408 690.985 23.08C690.633 23.7413 690.457 24.52 690.457 25.416C690.457 26.3013 690.633 27.08 690.985 27.752C691.337 28.4133 691.823 28.9253 692.441 29.288C693.06 29.6507 693.759 29.832 694.537 29.832C695.348 29.832 696.041 29.656 696.617 29.304C697.204 28.9413 697.652 28.424 697.961 27.752H699.705C699.289 28.8187 698.628 29.6453 697.721 30.232C696.815 30.808 695.753 31.096 694.537 31.096C693.503 31.096 692.559 30.856 691.705 30.376C690.863 29.8853 690.196 29.208 689.705 28.344C689.215 27.48 688.969 26.504 688.969 25.416ZM705.697 31.144C704.875 31.144 704.129 30.9573 703.457 30.584C702.795 30.2107 702.273 29.6827 701.889 29C701.515 28.3067 701.329 27.5067 701.329 26.6C701.329 25.704 701.521 24.9147 701.905 24.232C702.299 23.5387 702.833 23.0107 703.505 22.648C704.177 22.2747 704.929 22.088 705.761 22.088C706.593 22.088 707.345 22.2747 708.017 22.648C708.689 23.0107 709.217 23.5333 709.601 24.216C709.995 24.8987 710.193 25.6933 710.193 26.6C710.193 27.5067 709.99 28.3067 709.585 29C709.19 29.6827 708.651 30.2107 707.969 30.584C707.286 30.9573 706.529 31.144 705.697 31.144ZM705.697 29.864C706.219 29.864 706.71 29.7413 707.169 29.496C707.627 29.2507 707.995 28.8827 708.273 28.392C708.561 27.9013 708.705 27.304 708.705 26.6C708.705 25.896 708.566 25.2987 708.289 24.808C708.011 24.3173 707.649 23.9547 707.201 23.72C706.753 23.4747 706.267 23.352 705.745 23.352C705.211 23.352 704.721 23.4747 704.273 23.72C703.835 23.9547 703.483 24.3173 703.217 24.808C702.95 25.2987 702.817 25.896 702.817 26.6C702.817 27.3147 702.945 27.9173 703.201 28.408C703.467 28.8987 703.819 29.2667 704.257 29.512C704.694 29.7467 705.174 29.864 705.697 29.864ZM719.883 22.232V31H718.427V29.704C718.15 30.152 717.76 30.504 717.259 30.76C716.768 31.0053 716.224 31.128 715.627 31.128C714.944 31.128 714.331 30.9893 713.787 30.712C713.243 30.424 712.811 29.9973 712.491 29.432C712.182 28.8667 712.027 28.1787 712.027 27.368V22.232H713.467V27.176C713.467 28.04 713.686 28.7067 714.123 29.176C714.56 29.6347 715.158 29.864 715.915 29.864C716.694 29.864 717.307 29.624 717.755 29.144C718.203 28.664 718.427 27.9653 718.427 27.048V22.232H719.883ZM723.797 23.656C724.053 23.1547 724.416 22.7653 724.885 22.488C725.365 22.2107 725.947 22.072 726.629 22.072V23.576H726.245C724.613 23.576 723.797 24.4613 723.797 26.232V31H722.341V22.232H723.797V23.656ZM731.414 31.144C730.742 31.144 730.139 31.032 729.606 30.808C729.073 30.5733 728.651 30.2533 728.342 29.848C728.033 29.432 727.862 28.9573 727.83 28.424H729.334C729.377 28.8613 729.579 29.2187 729.942 29.496C730.315 29.7733 730.801 29.912 731.398 29.912C731.953 29.912 732.39 29.7893 732.71 29.544C733.03 29.2987 733.19 28.9893 733.19 28.616C733.19 28.232 733.019 27.9493 732.678 27.768C732.337 27.576 731.809 27.3893 731.094 27.208C730.443 27.0373 729.91 26.8667 729.494 26.696C729.089 26.5147 728.737 26.2533 728.438 25.912C728.15 25.56 728.006 25.1013 728.006 24.536C728.006 24.088 728.139 23.6773 728.406 23.304C728.673 22.9307 729.051 22.6373 729.542 22.424C730.033 22.2 730.593 22.088 731.222 22.088C732.193 22.088 732.977 22.3333 733.574 22.824C734.171 23.3147 734.491 23.9867 734.534 24.84H733.078C733.046 24.3813 732.859 24.0133 732.518 23.736C732.187 23.4587 731.739 23.32 731.174 23.32C730.651 23.32 730.235 23.432 729.926 23.656C729.617 23.88 729.462 24.1733 729.462 24.536C729.462 24.824 729.553 25.064 729.734 25.256C729.926 25.4373 730.161 25.5867 730.438 25.704C730.726 25.8107 731.121 25.9333 731.622 26.072C732.251 26.2427 732.763 26.4133 733.158 26.584C733.553 26.744 733.889 26.9893 734.166 27.32C734.454 27.6507 734.603 28.0827 734.614 28.616C734.614 29.096 734.481 29.528 734.214 29.912C733.947 30.296 733.569 30.6 733.078 30.824C732.598 31.0373 732.043 31.144 731.414 31.144ZM744.67 26.28C744.67 26.5573 744.654 26.8507 744.622 27.16H737.614C737.667 28.024 737.96 28.7013 738.494 29.192C739.038 29.672 739.694 29.912 740.462 29.912C741.091 29.912 741.614 29.768 742.03 29.48C742.456 29.1813 742.755 28.7867 742.926 28.296H744.494C744.259 29.1387 743.79 29.8267 743.086 30.36C742.382 30.8827 741.507 31.144 740.462 31.144C739.63 31.144 738.883 30.9573 738.222 30.584C737.571 30.2107 737.059 29.6827 736.686 29C736.312 28.3067 736.126 27.5067 736.126 26.6C736.126 25.6933 736.307 24.8987 736.67 24.216C737.032 23.5333 737.539 23.0107 738.19 22.648C738.851 22.2747 739.608 22.088 740.462 22.088C741.294 22.088 742.03 22.2693 742.67 22.632C743.31 22.9947 743.8 23.496 744.142 24.136C744.494 24.7653 744.67 25.48 744.67 26.28ZM743.166 25.976C743.166 25.4213 743.043 24.9467 742.798 24.552C742.552 24.1467 742.216 23.8427 741.79 23.64C741.374 23.4267 740.91 23.32 740.398 23.32C739.662 23.32 739.032 23.5547 738.51 24.024C737.998 24.4933 737.704 25.144 737.63 25.976H743.166ZM749.695 31.144C749.023 31.144 748.421 31.032 747.887 30.808C747.354 30.5733 746.933 30.2533 746.623 29.848C746.314 29.432 746.143 28.9573 746.111 28.424H747.615C747.658 28.8613 747.861 29.2187 748.223 29.496C748.597 29.7733 749.082 29.912 749.679 29.912C750.234 29.912 750.671 29.7893 750.991 29.544C751.311 29.2987 751.471 28.9893 751.471 28.616C751.471 28.232 751.301 27.9493 750.959 27.768C750.618 27.576 750.09 27.3893 749.375 27.208C748.725 27.0373 748.191 26.8667 747.775 26.696C747.37 26.5147 747.018 26.2533 746.719 25.912C746.431 25.56 746.287 25.1013 746.287 24.536C746.287 24.088 746.421 23.6773 746.687 23.304C746.954 22.9307 747.333 22.6373 747.823 22.424C748.314 22.2 748.874 22.088 749.503 22.088C750.474 22.088 751.258 22.3333 751.855 22.824C752.453 23.3147 752.773 23.9867 752.815 24.84H751.359C751.327 24.3813 751.141 24.0133 750.799 23.736C750.469 23.4587 750.021 23.32 749.455 23.32C748.933 23.32 748.517 23.432 748.207 23.656C747.898 23.88 747.743 24.1733 747.743 24.536C747.743 24.824 747.834 25.064 748.015 25.256C748.207 25.4373 748.442 25.5867 748.719 25.704C749.007 25.8107 749.402 25.9333 749.903 26.072C750.533 26.2427 751.045 26.4133 751.439 26.584C751.834 26.744 752.17 26.9893 752.447 27.32C752.735 27.6507 752.885 28.0827 752.895 28.616C752.895 29.096 752.762 29.528 752.495 29.912C752.229 30.296 751.85 30.6 751.359 30.824C750.879 31.0373 750.325 31.144 749.695 31.144Z" fill="#5F5B53"/>
<path d="M804.751 23.112C804.751 24.04 804.431 24.8133 803.791 25.432C803.161 26.04 802.196 26.344 800.895 26.344H798.751V31H797.295V19.848H800.895C802.153 19.848 803.108 20.152 803.759 20.76C804.42 21.368 804.751 22.152 804.751 23.112ZM800.895 25.144C801.705 25.144 802.303 24.968 802.687 24.616C803.071 24.264 803.263 23.7627 803.263 23.112C803.263 21.736 802.473 21.048 800.895 21.048H798.751V25.144H800.895ZM808.016 23.656C808.272 23.1547 808.635 22.7653 809.104 22.488C809.584 22.2107 810.165 22.072 810.848 22.072V23.576H810.464C808.832 23.576 808.016 24.4613 808.016 26.232V31H806.56V22.232H808.016V23.656ZM813.281 20.808C813.004 20.808 812.769 20.712 812.577 20.52C812.385 20.328 812.289 20.0933 812.289 19.816C812.289 19.5387 812.385 19.304 812.577 19.112C812.769 18.92 813.004 18.824 813.281 18.824C813.548 18.824 813.772 18.92 813.953 19.112C814.145 19.304 814.241 19.5387 814.241 19.816C814.241 20.0933 814.145 20.328 813.953 20.52C813.772 20.712 813.548 20.808 813.281 20.808ZM813.985 22.232V31H812.529V22.232H813.985ZM815.922 26.6C815.922 25.6933 816.104 24.904 816.466 24.232C816.829 23.5493 817.33 23.0213 817.97 22.648C818.621 22.2747 819.362 22.088 820.194 22.088C821.272 22.088 822.157 22.3493 822.85 22.872C823.554 23.3947 824.018 24.12 824.242 25.048H822.674C822.525 24.5147 822.232 24.0933 821.794 23.784C821.368 23.4747 820.834 23.32 820.194 23.32C819.362 23.32 818.69 23.608 818.178 24.184C817.666 24.7493 817.41 25.5547 817.41 26.6C817.41 27.656 817.666 28.472 818.178 29.048C818.69 29.624 819.362 29.912 820.194 29.912C820.834 29.912 821.368 29.7627 821.794 29.464C822.221 29.1653 822.514 28.7387 822.674 28.184H824.242C824.008 29.08 823.538 29.8 822.834 30.344C822.13 30.8773 821.25 31.144 820.194 31.144C819.362 31.144 818.621 30.9573 817.97 30.584C817.33 30.2107 816.829 29.6827 816.466 29C816.104 28.3173 815.922 27.5173 815.922 26.6ZM826.937 20.808C826.66 20.808 826.425 20.712 826.233 20.52C826.041 20.328 825.945 20.0933 825.945 19.816C825.945 19.5387 826.041 19.304 826.233 19.112C826.425 18.92 826.66 18.824 826.937 18.824C827.204 18.824 827.428 18.92 827.609 19.112C827.801 19.304 827.897 19.5387 827.897 19.816C827.897 20.0933 827.801 20.328 827.609 20.52C827.428 20.712 827.204 20.808 826.937 20.808ZM827.641 22.232V31H826.185V22.232H827.641ZM834.395 22.072C835.461 22.072 836.325 22.3973 836.987 23.048C837.648 23.688 837.979 24.616 837.979 25.832V31H836.539V26.04C836.539 25.1653 836.32 24.4987 835.883 24.04C835.445 23.5707 834.848 23.336 834.091 23.336C833.323 23.336 832.709 23.576 832.251 24.056C831.803 24.536 831.579 25.2347 831.579 26.152V31H830.123V22.232H831.579V23.48C831.867 23.032 832.256 22.6853 832.747 22.44C833.248 22.1947 833.797 22.072 834.395 22.072ZM843.973 22.088C844.73 22.088 845.392 22.2533 845.957 22.584C846.533 22.9147 846.96 23.3307 847.237 23.832V22.232H848.709V31.192C848.709 31.992 848.538 32.7013 848.197 33.32C847.856 33.9493 847.365 34.44 846.725 34.792C846.096 35.144 845.36 35.32 844.517 35.32C843.365 35.32 842.405 35.048 841.637 34.504C840.869 33.96 840.416 33.2187 840.277 32.28H841.717C841.877 32.8133 842.208 33.24 842.709 33.56C843.21 33.8907 843.813 34.056 844.517 34.056C845.317 34.056 845.968 33.8053 846.469 33.304C846.981 32.8027 847.237 32.0987 847.237 31.192V29.352C846.949 29.864 846.522 30.2907 845.957 30.632C845.392 30.9733 844.73 31.144 843.973 31.144C843.194 31.144 842.485 30.952 841.845 30.568C841.216 30.184 840.72 29.6453 840.357 28.952C839.994 28.2587 839.813 27.4693 839.813 26.584C839.813 25.688 839.994 24.904 840.357 24.232C840.72 23.5493 841.216 23.0213 841.845 22.648C842.485 22.2747 843.194 22.088 843.973 22.088ZM847.237 26.6C847.237 25.9387 847.104 25.3627 846.837 24.872C846.57 24.3813 846.208 24.008 845.749 23.752C845.301 23.4853 844.805 23.352 844.261 23.352C843.717 23.352 843.221 23.48 842.773 23.736C842.325 23.992 841.968 24.3653 841.701 24.856C841.434 25.3467 841.301 25.9227 841.301 26.584C841.301 27.256 841.434 27.8427 841.701 28.344C841.968 28.8347 842.325 29.2133 842.773 29.48C843.221 29.736 843.717 29.864 844.261 29.864C844.805 29.864 845.301 29.736 845.749 29.48C846.208 29.2133 846.57 28.8347 846.837 28.344C847.104 27.8427 847.237 27.2613 847.237 26.6Z" fill="#5F5B53"/>
<path d="M899.12 31L896.464 26.44H894.704V31H893.248V19.848H896.848C897.69 19.848 898.4 19.992 898.976 20.28C899.562 20.568 900 20.9573 900.288 21.448C900.576 21.9387 900.72 22.4987 900.72 23.128C900.72 23.896 900.496 24.5733 900.048 25.16C899.61 25.7467 898.949 26.136 898.064 26.328L900.864 31H899.12ZM894.704 25.272H896.848C897.637 25.272 898.229 25.08 898.624 24.696C899.018 24.3013 899.216 23.7787 899.216 23.128C899.216 22.4667 899.018 21.9547 898.624 21.592C898.24 21.2293 897.648 21.048 896.848 21.048H894.704V25.272ZM910.982 26.28C910.982 26.5573 910.966 26.8507 910.934 27.16H903.926C903.979 28.024 904.273 28.7013 904.806 29.192C905.35 29.672 906.006 29.912 906.774 29.912C907.403 29.912 907.926 29.768 908.342 29.48C908.769 29.1813 909.067 28.7867 909.238 28.296H910.806C910.571 29.1387 910.102 29.8267 909.398 30.36C908.694 30.8827 907.819 31.144 906.774 31.144C905.942 31.144 905.195 30.9573 904.534 30.584C903.883 30.2107 903.371 29.6827 902.998 29C902.625 28.3067 902.438 27.5067 902.438 26.6C902.438 25.6933 902.619 24.8987 902.982 24.216C903.345 23.5333 903.851 23.0107 904.502 22.648C905.163 22.2747 905.921 22.088 906.774 22.088C907.606 22.088 908.342 22.2693 908.982 22.632C909.622 22.9947 910.113 23.496 910.454 24.136C910.806 24.7653 910.982 25.48 910.982 26.28ZM909.478 25.976C909.478 25.4213 909.355 24.9467 909.11 24.552C908.865 24.1467 908.529 23.8427 908.102 23.64C907.686 23.4267 907.222 23.32 906.71 23.32C905.974 23.32 905.345 23.5547 904.822 24.024C904.31 24.4933 904.017 25.144 903.942 25.976H909.478ZM916.168 29.656L918.888 22.232H920.44L917 31H915.304L911.864 22.232H913.432L916.168 29.656ZM922.625 20.808C922.347 20.808 922.113 20.712 921.921 20.52C921.729 20.328 921.633 20.0933 921.633 19.816C921.633 19.5387 921.729 19.304 921.921 19.112C922.113 18.92 922.347 18.824 922.625 18.824C922.891 18.824 923.115 18.92 923.297 19.112C923.489 19.304 923.585 19.5387 923.585 19.816C923.585 20.0933 923.489 20.328 923.297 20.52C923.115 20.712 922.891 20.808 922.625 20.808ZM923.329 22.232V31H921.873V22.232H923.329ZM933.81 26.28C933.81 26.5573 933.794 26.8507 933.762 27.16H926.754C926.807 28.024 927.101 28.7013 927.634 29.192C928.178 29.672 928.834 29.912 929.602 29.912C930.231 29.912 930.754 29.768 931.17 29.48C931.597 29.1813 931.895 28.7867 932.066 28.296H933.634C933.399 29.1387 932.93 29.8267 932.226 30.36C931.522 30.8827 930.647 31.144 929.602 31.144C928.77 31.144 928.023 30.9573 927.362 30.584C926.711 30.2107 926.199 29.6827 925.826 29C925.453 28.3067 925.266 27.5067 925.266 26.6C925.266 25.6933 925.447 24.8987 925.81 24.216C926.173 23.5333 926.679 23.0107 927.33 22.648C927.991 22.2747 928.749 22.088 929.602 22.088C930.434 22.088 931.17 22.2693 931.81 22.632C932.45 22.9947 932.941 23.496 933.282 24.136C933.634 24.7653 933.81 25.48 933.81 26.28ZM932.306 25.976C932.306 25.4213 932.183 24.9467 931.938 24.552C931.693 24.1467 931.357 23.8427 930.93 23.64C930.514 23.4267 930.05 23.32 929.538 23.32C928.802 23.32 928.173 23.5547 927.65 24.024C927.138 24.4933 926.845 25.144 926.77 25.976H932.306ZM947.412 22.232L944.676 31H943.172L941.06 24.04L938.948 31H937.444L934.692 22.232H936.18L938.196 29.592L940.372 22.232H941.86L943.988 29.608L945.972 22.232H947.412ZM951.961 31.144C951.289 31.144 950.686 31.032 950.153 30.808C949.62 30.5733 949.198 30.2533 948.889 29.848C948.58 29.432 948.409 28.9573 948.377 28.424H949.881C949.924 28.8613 950.126 29.2187 950.489 29.496C950.862 29.7733 951.348 29.912 951.945 29.912C952.5 29.912 952.937 29.7893 953.257 29.544C953.577 29.2987 953.737 28.9893 953.737 28.616C953.737 28.232 953.566 27.9493 953.225 27.768C952.884 27.576 952.356 27.3893 951.641 27.208C950.99 27.0373 950.457 26.8667 950.041 26.696C949.636 26.5147 949.284 26.2533 948.985 25.912C948.697 25.56 948.553 25.1013 948.553 24.536C948.553 24.088 948.686 23.6773 948.953 23.304C949.22 22.9307 949.598 22.6373 950.089 22.424C950.58 22.2 951.14 22.088 951.769 22.088C952.74 22.088 953.524 22.3333 954.121 22.824C954.718 23.3147 955.038 23.9867 955.081 24.84H953.625C953.593 24.3813 953.406 24.0133 953.065 23.736C952.734 23.4587 952.286 23.32 951.721 23.32C951.198 23.32 950.782 23.432 950.473 23.656C950.164 23.88 950.009 24.1733 950.009 24.536C950.009 24.824 950.1 25.064 950.281 25.256C950.473 25.4373 950.708 25.5867 950.985 25.704C951.273 25.8107 951.668 25.9333 952.169 26.072C952.798 26.2427 953.31 26.4133 953.705 26.584C954.1 26.744 954.436 26.9893 954.713 27.32C955.001 27.6507 955.15 28.0827 955.161 28.616C955.161 29.096 955.028 29.528 954.761 29.912C954.494 30.296 954.116 30.6 953.625 30.824C953.145 31.0373 952.59 31.144 951.961 31.144Z" fill="#5F5B53"/>
<rect x="1026" width="144" height="50" rx="24.5" fill="#171100"/>
<path d="M1072.24 31.112C1071.46 31.112 1070.76 30.9787 1070.13 30.712C1069.51 30.4453 1069.02 30.0613 1068.66 29.56C1068.29 29.0587 1068.11 28.4667 1068.1 27.784H1070.5C1070.53 28.2427 1070.69 28.6053 1070.98 28.872C1071.28 29.1387 1071.68 29.272 1072.19 29.272C1072.72 29.272 1073.13 29.1493 1073.43 28.904C1073.72 28.648 1073.87 28.3173 1073.87 27.912C1073.87 27.5813 1073.77 27.3093 1073.57 27.096C1073.37 26.8827 1073.11 26.7173 1072.8 26.6C1072.5 26.472 1072.09 26.3333 1071.55 26.184C1070.83 25.9707 1070.24 25.7627 1069.78 25.56C1069.33 25.3467 1068.94 25.032 1068.61 24.616C1068.29 24.1893 1068.13 23.624 1068.13 22.92C1068.13 22.2587 1068.29 21.6827 1068.63 21.192C1068.96 20.7013 1069.42 20.328 1070.02 20.072C1070.61 19.8053 1071.3 19.672 1072.07 19.672C1073.22 19.672 1074.15 19.9547 1074.87 20.52C1075.59 21.0747 1075.99 21.8533 1076.07 22.856H1073.6C1073.58 22.472 1073.41 22.1573 1073.11 21.912C1072.81 21.656 1072.41 21.528 1071.91 21.528C1071.47 21.528 1071.12 21.64 1070.85 21.864C1070.59 22.088 1070.47 22.4133 1070.47 22.84C1070.47 23.1387 1070.56 23.3893 1070.75 23.592C1070.96 23.784 1071.2 23.944 1071.49 24.072C1071.79 24.1893 1072.2 24.328 1072.74 24.488C1073.46 24.7013 1074.05 24.9147 1074.51 25.128C1074.97 25.3413 1075.37 25.6613 1075.7 26.088C1076.03 26.5147 1076.19 27.0747 1076.19 27.768C1076.19 28.3653 1076.04 28.92 1075.73 29.432C1075.42 29.944 1074.97 30.3547 1074.37 30.664C1073.77 30.9627 1073.06 31.112 1072.24 31.112ZM1079.27 21.08C1078.88 21.08 1078.55 20.9573 1078.28 20.712C1078.02 20.456 1077.9 20.1413 1077.9 19.768C1077.9 19.3947 1078.02 19.0853 1078.28 18.84C1078.55 18.584 1078.88 18.456 1079.27 18.456C1079.67 18.456 1079.99 18.584 1080.25 18.84C1080.51 19.0853 1080.65 19.3947 1080.65 19.768C1080.65 20.1413 1080.51 20.456 1080.25 20.712C1079.99 20.9573 1079.67 21.08 1079.27 21.08ZM1080.38 22.136V31H1078.14V22.136H1080.38ZM1086.06 21.992C1086.72 21.992 1087.3 22.1253 1087.8 22.392C1088.31 22.648 1088.7 22.984 1088.99 23.4V22.136H1091.24V31.064C1091.24 31.8853 1091.08 32.616 1090.75 33.256C1090.42 33.9067 1089.92 34.4187 1089.26 34.792C1088.6 35.176 1087.8 35.368 1086.86 35.368C1085.6 35.368 1084.57 35.0747 1083.76 34.488C1082.96 33.9013 1082.5 33.1013 1082.4 32.088H1084.62C1084.74 32.4933 1084.99 32.8133 1085.37 33.048C1085.77 33.2933 1086.24 33.416 1086.8 33.416C1087.45 33.416 1087.98 33.2187 1088.38 32.824C1088.79 32.44 1088.99 31.8533 1088.99 31.064V29.688C1088.7 30.104 1088.3 30.4507 1087.79 30.728C1087.29 31.0053 1086.71 31.144 1086.06 31.144C1085.31 31.144 1084.63 30.952 1084.01 30.568C1083.39 30.184 1082.9 29.6453 1082.54 28.952C1082.19 28.248 1082.01 27.4427 1082.01 26.536C1082.01 25.64 1082.19 24.8453 1082.54 24.152C1082.9 23.4587 1083.39 22.9253 1084 22.552C1084.62 22.1787 1085.3 21.992 1086.06 21.992ZM1088.99 26.568C1088.99 26.024 1088.88 25.56 1088.67 25.176C1088.46 24.7813 1088.17 24.4827 1087.8 24.28C1087.44 24.0667 1087.05 23.96 1086.64 23.96C1086.22 23.96 1085.84 24.0613 1085.48 24.264C1085.13 24.4667 1084.84 24.7653 1084.62 25.16C1084.41 25.544 1084.3 26.0027 1084.3 26.536C1084.3 27.0693 1084.41 27.5387 1084.62 27.944C1084.84 28.3387 1085.13 28.6427 1085.48 28.856C1085.85 29.0693 1086.23 29.176 1086.64 29.176C1087.05 29.176 1087.44 29.0747 1087.8 28.872C1088.17 28.6587 1088.46 28.36 1088.67 27.976C1088.88 27.5813 1088.99 27.112 1088.99 26.568ZM1098.34 22.008C1099.4 22.008 1100.25 22.344 1100.9 23.016C1101.55 23.6773 1101.88 24.6053 1101.88 25.8V31H1099.64V26.104C1099.64 25.4 1099.46 24.8613 1099.11 24.488C1098.76 24.104 1098.28 23.912 1097.67 23.912C1097.05 23.912 1096.56 24.104 1096.2 24.488C1095.85 24.8613 1095.67 25.4 1095.67 26.104V31H1093.43V22.136H1095.67V23.24C1095.97 22.856 1096.35 22.5573 1096.81 22.344C1097.28 22.12 1097.79 22.008 1098.34 22.008ZM1110.03 19.832V26.744C1110.03 27.5013 1110.23 28.0827 1110.62 28.488C1111.02 28.8827 1111.57 29.08 1112.29 29.08C1113.01 29.08 1113.57 28.8827 1113.97 28.488C1114.36 28.0827 1114.56 27.5013 1114.56 26.744V19.832H1116.81V26.728C1116.81 27.6773 1116.61 28.4827 1116.19 29.144C1115.79 29.7947 1115.24 30.2853 1114.54 30.616C1113.86 30.9467 1113.1 31.112 1112.25 31.112C1111.42 31.112 1110.67 30.9467 1109.98 30.616C1109.31 30.2853 1108.78 29.7947 1108.38 29.144C1107.99 28.4827 1107.79 27.6773 1107.79 26.728V19.832H1110.03ZM1121.22 23.416C1121.51 23.0107 1121.9 22.6747 1122.4 22.408C1122.92 22.1307 1123.5 21.992 1124.15 21.992C1124.9 21.992 1125.59 22.1787 1126.2 22.552C1126.81 22.9253 1127.3 23.4587 1127.65 24.152C1128.01 24.8347 1128.2 25.6293 1128.2 26.536C1128.2 27.4427 1128.01 28.248 1127.65 28.952C1127.3 29.6453 1126.81 30.184 1126.2 30.568C1125.59 30.952 1124.9 31.144 1124.15 31.144C1123.5 31.144 1122.92 31.0107 1122.42 30.744C1121.93 30.4773 1121.53 30.1413 1121.22 29.736V35.224H1118.98V22.136H1121.22V23.416ZM1125.91 26.536C1125.91 26.0027 1125.8 25.544 1125.57 25.16C1125.36 24.7653 1125.07 24.4667 1124.71 24.264C1124.36 24.0613 1123.97 23.96 1123.56 23.96C1123.15 23.96 1122.77 24.0667 1122.4 24.28C1122.05 24.4827 1121.76 24.7813 1121.54 25.176C1121.33 25.5707 1121.22 26.0347 1121.22 26.568C1121.22 27.1013 1121.33 27.5653 1121.54 27.96C1121.76 28.3547 1122.05 28.6587 1122.4 28.872C1122.77 29.0747 1123.15 29.176 1123.56 29.176C1123.97 29.176 1124.36 29.0693 1124.71 28.856C1125.07 28.6427 1125.36 28.3387 1125.57 27.944C1125.8 27.5493 1125.91 27.08 1125.91 26.536Z" fill="white"/>
</svg>
